<svg xmlns="http://www.w3.org/2000/svg" xmlns:xlink="http://www.w3.org/1999/xlink" width="1024" zoomAndPan="magnify" viewBox="0 0 768 767.999994" height="1024" preserveAspectRatio="xMidYMid meet" version="1.0"><defs><clipPath id="id1"><path d="M 231 250.507812 L 537.898438 250.507812 L 537.898438 517.507812 L 231 517.507812 Z M 231 250.507812 " clip-rule="nonzero"/></clipPath></defs><g clip-path="url(#id1)"><path fill="#ffffff" d="M 537.476562 258.539062 C 537.527344 258.511719 537.570312 258.476562 537.617188 258.449219 L 387.804688 515.203125 C 386.953125 516.664062 385.398438 517.53125 383.753906 517.53125 C 383.457031 517.53125 383.160156 517.503906 382.863281 517.445312 C 380.902344 517.066406 379.398438 515.496094 379.109375 513.523438 L 357.089844 364.117188 Z M 235.730469 250.507812 C 233.742188 250.507812 231.96875 251.761719 231.308594 253.632812 C 230.644531 255.503906 231.234375 257.59375 232.78125 258.84375 L 352.757812 355.785156 L 532.632812 250.507812 Z M 235.730469 250.507812 " fill-opacity="1" fill-rule="nonzero"/></g></svg>